<svg id="visual" viewBox="0 0 900 450" width="900" height="450" xmlns="http://www.w3.org/2000/svg" xmlns:xlink="http://www.w3.org/1999/xlink" version="1.1"><path d="M0 385L11.5 385C23 385 46 385 69 378.5C92 372 115 359 138.2 348.8C161.3 338.7 184.7 331.3 207.8 333.8C231 336.3 254 348.7 277 350.3C300 352 323 343 346 342.8C369 342.7 392 351.3 415.2 357.3C438.3 363.3 461.7 366.7 484.8 367.3C508 368 531 366 554 358.3C577 350.7 600 337.3 623 334.7C646 332 669 340 692.2 351C715.3 362 738.7 376 761.8 374.5C785 373 808 356 831 351C854 346 877 353 888.5 356.5L900 360L900 451L888.5 451C877 451 854 451 831 451C808 451 785 451 761.8 451C738.7 451 715.3 451 692.2 451C669 451 646 451 623 451C600 451 577 451 554 451C531 451 508 451 484.8 451C461.7 451 438.3 451 415.2 451C392 451 369 451 346 451C323 451 300 451 277 451C254 451 231 451 207.8 451C184.7 451 161.3 451 138.2 451C115 451 92 451 69 451C46 451 23 451 11.5 451L0 451Z" fill="#DE4686" stroke-linecap="round" stroke-linejoin="miter"></path></svg>