<svg id="visual" viewBox="0 0 900 450" width="900" height="450" xmlns="http://www.w3.org/2000/svg" xmlns:xlink="http://www.w3.org/1999/xlink" version="1.1"><path d="M0 275L12.5 269C25 263 50 251 75 246.7C100 242.3 125 245.7 150 251.5C175 257.3 200 265.7 225 264.5C250 263.3 275 252.7 300 245.8C325 239 350 236 375 237.2C400 238.3 425 243.7 450 251.7C475 259.7 500 270.3 525 271.3C550 272.3 575 263.7 600 260C625 256.3 650 257.7 675 252.8C700 248 725 237 750 237.5C775 238 800 250 825 253.8C850 257.7 875 253.3 887.5 251.2L900 249L900 451L887.5 451C875 451 850 451 825 451C800 451 775 451 750 451C725 451 700 451 675 451C650 451 625 451 600 451C575 451 550 451 525 451C500 451 475 451 450 451C425 451 400 451 375 451C350 451 325 451 300 451C275 451 250 451 225 451C200 451 175 451 150 451C125 451 100 451 75 451C50 451 25 451 12.5 451L0 451Z" fill="#fe7151"></path><path d="M0 307L12.5 308C25 309 50 311 75 305.5C100 300 125 287 150 279.3C175 271.7 200 269.3 225 272.8C250 276.3 275 285.7 300 293.3C325 301 350 307 375 308.3C400 309.7 425 306.3 450 305.2C475 304 500 305 525 301.5C550 298 575 290 600 291.2C625 292.3 650 302.7 675 300.3C700 298 725 283 750 279.7C775 276.3 800 284.7 825 285.2C850 285.7 875 278.3 887.5 274.7L900 271L900 451L887.5 451C875 451 850 451 825 451C800 451 775 451 750 451C725 451 700 451 675 451C650 451 625 451 600 451C575 451 550 451 525 451C500 451 475 451 450 451C425 451 400 451 375 451C350 451 325 451 300 451C275 451 250 451 225 451C200 451 175 451 150 451C125 451 100 451 75 451C50 451 25 451 12.5 451L0 451Z" fill="#fc655c"></path><path d="M0 307L12.5 309.8C25 312.7 50 318.3 75 318.5C100 318.7 125 313.3 150 309.8C175 306.3 200 304.7 225 307.7C250 310.7 275 318.3 300 321.2C325 324 350 322 375 319.5C400 317 425 314 450 311C475 308 500 305 525 309.5C550 314 575 326 600 329.5C625 333 650 328 675 326.3C700 324.7 725 326.3 750 325.7C775 325 800 322 825 319.7C850 317.3 875 315.7 887.5 314.8L900 314L900 451L887.5 451C875 451 850 451 825 451C800 451 775 451 750 451C725 451 700 451 675 451C650 451 625 451 600 451C575 451 550 451 525 451C500 451 475 451 450 451C425 451 400 451 375 451C350 451 325 451 300 451C275 451 250 451 225 451C200 451 175 451 150 451C125 451 100 451 75 451C50 451 25 451 12.5 451L0 451Z" fill="#f85b67"></path><path d="M0 341L12.5 344.7C25 348.3 50 355.7 75 355.7C100 355.7 125 348.3 150 344.2C175 340 200 339 225 340.2C250 341.3 275 344.7 300 348.7C325 352.7 350 357.3 375 359.5C400 361.7 425 361.3 450 357.7C475 354 500 347 525 342C550 337 575 334 600 333C625 332 650 333 675 338.5C700 344 725 354 750 355.8C775 357.7 800 351.3 825 347C850 342.7 875 340.3 887.5 339.2L900 338L900 451L887.5 451C875 451 850 451 825 451C800 451 775 451 750 451C725 451 700 451 675 451C650 451 625 451 600 451C575 451 550 451 525 451C500 451 475 451 450 451C425 451 400 451 375 451C350 451 325 451 300 451C275 451 250 451 225 451C200 451 175 451 150 451C125 451 100 451 75 451C50 451 25 451 12.5 451L0 451Z" fill="#f25271"></path><path d="M0 366L12.5 368.8C25 371.7 50 377.3 75 381.5C100 385.7 125 388.3 150 387.8C175 387.3 200 383.7 225 382.8C250 382 275 384 300 385.3C325 386.7 350 387.3 375 385.2C400 383 425 378 450 378.3C475 378.7 500 384.3 525 387C550 389.7 575 389.3 600 385C625 380.7 650 372.3 675 371.8C700 371.3 725 378.7 750 384C775 389.3 800 392.7 825 393.8C850 395 875 394 887.5 393.5L900 393L900 451L887.5 451C875 451 850 451 825 451C800 451 775 451 750 451C725 451 700 451 675 451C650 451 625 451 600 451C575 451 550 451 525 451C500 451 475 451 450 451C425 451 400 451 375 451C350 451 325 451 300 451C275 451 250 451 225 451C200 451 175 451 150 451C125 451 100 451 75 451C50 451 25 451 12.5 451L0 451Z" fill="#e94b7c"></path><path d="M0 403L12.5 402C25 401 50 399 75 399.2C100 399.3 125 401.7 150 405.2C175 408.7 200 413.3 225 412.5C250 411.7 275 405.3 300 401.8C325 398.3 350 397.7 375 398.7C400 399.7 425 402.3 450 405C475 407.7 500 410.3 525 413C550 415.7 575 418.3 600 420C625 421.7 650 422.3 675 421.5C700 420.7 725 418.3 750 416.5C775 414.7 800 413.3 825 413.2C850 413 875 414 887.5 414.5L900 415L900 451L887.5 451C875 451 850 451 825 451C800 451 775 451 750 451C725 451 700 451 675 451C650 451 625 451 600 451C575 451 550 451 525 451C500 451 475 451 450 451C425 451 400 451 375 451C350 451 325 451 300 451C275 451 250 451 225 451C200 451 175 451 150 451C125 451 100 451 75 451C50 451 25 451 12.5 451L0 451Z" fill="#de4686"></path></svg>